<?xml version="1.0" standalone="no"?>
<!DOCTYPE svg PUBLIC "-//W3C//DTD SVG 20010904//EN"
 "http://www.w3.org/TR/2001/REC-SVG-20010904/DTD/svg10.dtd">
<svg version="1.0" xmlns="http://www.w3.org/2000/svg"
 width="2000.000000pt" height="459.000000pt" viewBox="0 0 2000.000000 459.000000"
 preserveAspectRatio="xMidYMid meet">

<g transform="translate(0.000000,459.000000) scale(0.100000,-0.100000)"
fill="#000000" stroke="none">
<path d="M1120 4415 l0 -175 50 0 50 0 0 175 0 175 -50 0 -50 0 0 -175z"/>
<path d="M1590 4415 l0 -175 55 0 55 0 0 175 0 175 -55 0 -55 0 0 -175z"/>
<path d="M2050 4415 l0 -175 50 0 50 0 0 175 0 175 -50 0 -50 0 0 -175z"/>
<path d="M2480 4415 l0 -175 55 0 55 0 0 175 0 175 -55 0 -55 0 0 -175z"/>
<path d="M2910 4415 l0 -175 55 0 55 0 0 175 0 175 -55 0 -55 0 0 -175z"/>
<path d="M3330 4415 l0 -175 55 0 55 0 0 175 0 175 -55 0 -55 0 0 -175z"/>
<path d="M1030 4030 l0 -140 140 0 140 0 0 140 0 140 -140 0 -140 0 0 -140z"/>
<path d="M1500 4030 l0 -140 145 0 145 0 0 140 0 140 -145 0 -145 0 0 -140z"/>
<path d="M1960 4030 l0 -140 140 0 140 0 0 140 0 140 -140 0 -140 0 0 -140z"/>
<path d="M2390 4030 l0 -140 140 0 140 0 0 140 0 140 -140 0 -140 0 0 -140z"/>
<path d="M2820 4030 l0 -140 145 0 145 0 0 140 0 140 -145 0 -145 0 0 -140z"/>
<path d="M3240 4030 l0 -140 145 0 145 0 0 140 0 140 -145 0 -145 0 0 -140z"/>
<path d="M870 2295 l0 -1435 1430 0 1430 0 0 1435 0 1435 -1430 0 -1430 0 0
-1435z"/>
<path d="M450 3390 l0 -140 140 0 140 0 0 140 0 140 -140 0 -140 0 0 -140z"/>
<path d="M3870 3390 l0 -140 140 0 140 0 0 140 0 140 -140 0 -140 0 0 -140z"/>
<path d="M30 3385 l0 -55 175 0 175 0 0 55 0 55 -175 0 -175 0 0 -55z"/>
<path d="M4220 3385 l0 -55 175 0 175 0 0 55 0 55 -175 0 -175 0 0 -55z"/>
<path d="M4990 2300 l0 -870 77 0 76 0 -5 757 c-5 704 -5 756 11 737 9 -11
232 -352 496 -757 l480 -736 93 -1 92 0 0 870 0 870 -75 0 -75 0 -2 -754 -3
-753 -490 751 -490 751 -93 3 -92 3 0 -871z"/>
<path d="M13970 2301 l0 -871 85 0 85 0 0 365 0 365 158 0 c86 0 173 3 193 6
l35 6 173 -364 c95 -199 176 -367 180 -371 4 -4 46 -7 93 -5 l85 3 -183 385
c-100 212 -183 390 -183 395 -1 6 19 23 44 39 121 76 195 244 195 444 0 198
-66 333 -195 399 -110 57 -166 65 -477 70 l-288 5 0 -871z m484 729 c112 -13
174 -40 230 -100 57 -61 76 -123 76 -244 0 -215 -73 -321 -255 -373 -28 -8
-118 -17 -207 -20 l-158 -6 0 377 0 376 113 0 c61 0 152 -5 201 -10z"/>
<path d="M450 2970 l0 -140 140 0 140 0 0 140 0 140 -140 0 -140 0 0 -140z"/>
<path d="M3870 2970 l0 -140 140 0 140 0 0 140 0 140 -140 0 -140 0 0 -140z"/>
<path d="M30 2970 l0 -50 175 0 175 0 0 50 0 50 -175 0 -175 0 0 -50z"/>
<path d="M4220 2970 l0 -50 175 0 175 0 0 50 0 50 -175 0 -175 0 0 -50z"/>
<path d="M8890 2682 c-30 -1 -65 -4 -77 -7 l-23 -5 0 -620 0 -620 80 0 80 0 0
509 0 508 58 26 c125 56 234 75 328 57 81 -15 150 -60 178 -115 20 -39 21 -57
24 -512 l3 -473 80 0 80 0 -2 512 -1 511 23 13 c67 38 185 67 274 68 80 1 97
-2 148 -27 64 -32 100 -72 116 -132 7 -26 11 -197 11 -492 l0 -453 80 0 80 0
0 478 c0 520 -4 560 -56 630 -36 46 -109 97 -169 117 -27 9 -89 19 -136 22
-116 8 -215 -15 -337 -78 l-95 -48 -31 29 c-93 92 -320 126 -467 71 -31 -12
-85 -39 -120 -60 l-64 -39 -5 67 -5 66 -55 -3z"/>
<path d="M450 2540 l0 -140 140 0 140 0 0 140 0 140 -140 0 -140 0 0 -140z"/>
<path d="M3870 2540 l0 -140 140 0 140 0 0 140 0 140 -140 0 -140 0 0 -140z"/>
<path d="M7006 2664 c-154 -37 -299 -153 -372 -295 -50 -99 -68 -192 -68 -344
0 -102 5 -158 18 -205 72 -264 258 -399 552 -400 105 0 219 26 297 67 29 15
86 61 128 103 128 126 179 266 179 488 0 320 -148 532 -408 588 -85 17 -249
17 -326 -2z m267 -139 c81 -21 127 -47 182 -102 54 -54 99 -140 116 -222 18
-87 7 -283 -20 -353 -47 -121 -138 -216 -248 -259 -45 -18 -79 -23 -153 -23
-153 -1 -255 46 -336 157 -108 146 -123 402 -35 582 33 66 104 144 166 181 88
51 221 67 328 39z"/>
<path d="M7963 2673 c-10 -4 -13 -138 -13 -624 l0 -619 80 0 80 0 0 439 0 439
74 69 c41 38 102 84 137 103 55 29 76 35 150 38 51 3 94 0 106 -7 19 -9 23 -5
48 52 15 34 29 67 32 74 3 7 -17 16 -52 24 -147 33 -316 -42 -447 -198 l-43
-52 -3 135 -3 134 -67 -1 c-37 0 -73 -3 -79 -6z"/>
<path d="M11081 2665 c-90 -20 -183 -52 -272 -92 l-76 -34 20 -55 c11 -30 25
-54 32 -54 7 0 37 11 66 24 114 52 227 78 344 80 95 1 117 -2 160 -22 108 -50
136 -108 143 -300 3 -73 1 -137 -4 -142 -5 -4 -61 -13 -124 -20 -265 -26 -436
-57 -502 -91 -55 -28 -116 -86 -140 -132 -17 -33 -19 -55 -16 -132 3 -81 6
-97 33 -141 37 -59 93 -99 171 -119 112 -29 211 -18 450 50 66 19 123 35 127
35 4 0 7 -20 7 -45 l0 -45 81 0 80 0 -3 488 c-4 531 -3 526 -63 612 -34 49
-116 106 -181 126 -70 22 -254 27 -333 9z m419 -870 l0 -174 -30 -16 c-55 -28
-214 -65 -310 -71 -131 -9 -201 6 -253 56 -38 35 -41 42 -45 102 -6 100 34
156 139 193 47 18 413 83 467 84 l32 1 0 -175z"/>
<path d="M11923 2673 c-10 -4 -13 -138 -13 -624 l0 -619 80 0 80 0 0 504 0
503 68 31 c144 65 260 84 362 58 81 -21 135 -58 163 -110 22 -40 22 -51 25
-513 l3 -473 80 0 80 0 -4 498 c-2 357 -7 507 -16 534 -27 83 -125 171 -221
198 -72 21 -211 23 -279 5 -63 -16 -163 -63 -228 -106 l-33 -21 0 71 0 71 -67
-1 c-38 0 -74 -3 -80 -6z"/>
<path d="M15600 2661 c-85 -18 -280 -89 -315 -115 -16 -11 -17 -17 -7 -42 6
-16 16 -41 21 -56 l10 -26 79 34 c166 72 340 99 452 70 80 -20 127 -57 160
-122 22 -44 25 -63 28 -195 l4 -147 -73 -7 c-264 -24 -450 -54 -536 -87 -70
-26 -154 -107 -171 -164 -15 -52 -15 -151 0 -195 24 -70 65 -116 135 -151 65
-32 72 -33 183 -33 120 0 108 -2 443 92 14 5 17 -2 17 -41 l0 -46 81 0 80 0
-3 498 -3 497 -28 57 c-30 60 -86 116 -151 150 -94 48 -258 60 -406 29z m430
-870 l0 -178 -92 -31 c-236 -78 -453 -65 -522 30 -29 40 -33 132 -8 178 24 44
107 95 181 111 104 22 376 68 409 68 l32 1 0 -179z"/>
<path d="M16458 2673 c-17 -4 -18 -42 -18 -624 l0 -619 80 0 80 0 0 504 0 503
68 31 c115 51 179 66 277 66 96 -1 142 -14 202 -60 70 -53 68 -37 71 -566 l3
-478 80 0 80 0 -3 508 c-3 564 -1 541 -73 620 -77 86 -201 128 -350 119 -99
-6 -165 -28 -269 -87 l-81 -47 -3 68 -3 69 -62 -1 c-34 -1 -70 -3 -79 -6z"/>
<path d="M18120 2673 c-213 -36 -395 -207 -456 -429 -24 -90 -30 -281 -10
-383 43 -230 185 -380 402 -426 88 -19 220 -19 307 0 202 43 374 211 433 425
25 91 26 329 1 419 -74 268 -260 404 -551 400 -56 -1 -112 -4 -126 -6z m282
-163 c159 -60 258 -234 258 -455 0 -244 -125 -427 -325 -479 -222 -58 -434 54
-509 269 -27 75 -33 262 -12 345 44 175 150 291 306 336 66 20 211 12 282 -16z"/>
<path d="M19400 2665 c-78 -15 -194 -54 -284 -95 l-65 -30 21 -58 21 -59 80
34 c131 55 228 77 347 77 95 1 110 -2 162 -27 103 -51 128 -110 128 -307 l0
-138 -72 -7 c-132 -12 -382 -46 -446 -60 -89 -21 -152 -56 -205 -115 -59 -66
-75 -128 -59 -227 19 -114 89 -188 207 -218 112 -28 224 -15 470 56 39 11 78
23 88 25 14 5 17 -2 17 -40 l0 -46 80 0 80 0 0 483 c0 555 0 556 -77 638 -104
111 -291 154 -493 114z m410 -874 l0 -179 -80 -27 c-274 -91 -497 -67 -545 59
-38 99 12 195 121 236 65 24 392 85 477 89 l27 1 0 -179z"/>
<path d="M30 2535 l0 -55 170 0 170 0 0 55 0 55 -170 0 -170 0 0 -55z"/>
<path d="M4220 2535 l0 -55 175 0 175 0 0 55 0 55 -175 0 -175 0 0 -55z"/>
<path d="M450 2105 l0 -145 140 0 140 0 0 145 0 145 -140 0 -140 0 0 -145z"/>
<path d="M3870 2105 l0 -145 140 0 140 0 0 145 0 145 -140 0 -140 0 0 -145z"/>
<path d="M30 2105 l0 -55 175 0 175 0 0 55 0 55 -175 0 -175 0 0 -55z"/>
<path d="M4220 2105 l0 -55 175 0 175 0 0 55 0 55 -175 0 -175 0 0 -55z"/>
<path d="M450 1650 l0 -140 140 0 140 0 0 140 0 140 -140 0 -140 0 0 -140z"/>
<path d="M3870 1650 l0 -140 140 0 140 0 0 140 0 140 -140 0 -140 0 0 -140z"/>
<path d="M30 1650 l0 -50 175 0 175 0 0 50 0 50 -175 0 -175 0 0 -50z"/>
<path d="M4220 1650 l0 -50 175 0 175 0 0 50 0 50 -175 0 -175 0 0 -50z"/>
<path d="M450 1170 l0 -140 140 0 140 0 0 140 0 140 -140 0 -140 0 0 -140z"/>
<path d="M3870 1170 l0 -140 140 0 140 0 0 140 0 140 -140 0 -140 0 0 -140z"/>
<path d="M30 1175 l0 -55 175 0 175 0 0 55 0 55 -175 0 -175 0 0 -55z"/>
<path d="M4220 1175 l0 -55 175 0 175 0 0 55 0 55 -175 0 -175 0 0 -55z"/>
<path d="M1030 560 l0 -140 140 0 140 0 0 140 0 140 -140 0 -140 0 0 -140z"/>
<path d="M1500 560 l0 -140 145 0 145 0 0 140 0 140 -145 0 -145 0 0 -140z"/>
<path d="M1960 560 l0 -140 140 0 140 0 0 140 0 140 -140 0 -140 0 0 -140z"/>
<path d="M2390 560 l0 -140 140 0 140 0 0 140 0 140 -140 0 -140 0 0 -140z"/>
<path d="M2820 560 l0 -140 145 0 145 0 0 140 0 140 -145 0 -145 0 0 -140z"/>
<path d="M3240 560 l0 -140 145 0 145 0 0 140 0 140 -145 0 -145 0 0 -140z"/>
<path d="M1120 175 l0 -175 50 0 50 0 0 175 0 175 -50 0 -50 0 0 -175z"/>
<path d="M1590 175 l0 -175 55 0 55 0 0 175 0 175 -55 0 -55 0 0 -175z"/>
<path d="M2050 175 l0 -175 50 0 50 0 0 175 0 175 -50 0 -50 0 0 -175z"/>
<path d="M2480 175 l0 -175 55 0 55 0 0 175 0 175 -55 0 -55 0 0 -175z"/>
<path d="M2910 175 l0 -175 55 0 55 0 0 175 0 175 -55 0 -55 0 0 -175z"/>
<path d="M3330 175 l0 -175 55 0 55 0 0 175 0 175 -55 0 -55 0 0 -175z"/>
</g>
</svg>
